<svg width="256" height="256" viewBox="0 0 256 256" fill="none" xmlns="http://www.w3.org/2000/svg">
  <rect width="256" height="256" rx="60" fill="#4B3B6D"/>

  <path d="M106.883 147.288C110.832 154.212 112.5 162.24 112.5 171.181C112.5 192.38 100.832 209.619 83.5 216.712C66.168 223.805 45.832 223.805 28.5 216.712C11.168 209.619 -0.5 192.38 -0.5 171.181C-0.5 162.24 1.168 154.212 5.117 147.288L11.5 137.5L0.5 125.5L16.5 129.5C22.618 123.633 30.632 119.344 39.5 116.712V101C39.5 87.193 50.693 76 64.5 76C78.307 76 89.5 87.193 89.5 101V116.712C98.368 119.344 106.382 123.633 112.5 129.5L128.5 125.5L117.5 137.5L123.883 147.288C119.934 154.212 118.266 162.24 118.266 171.181Z" fill="#F97316"/>

  <path d="M194.5 171.181C194.5 192.38 182.832 209.619 165.5 216.712C148.168 223.805 127.832 223.805 110.5 216.712C93.168 209.619 81.5 192.38 81.5 171.181C81.5 162.24 83.168 154.212 87.117 147.288L93.5 137.5L82.5 125.5L98.5 129.5C104.618 123.633 112.632 119.344 121.5 116.712V101C121.5 87.193 132.693 76 146.5 76C160.307 76 171.5 87.193 171.5 101V116.712C180.368 119.344 188.382 123.633 194.5 129.5L210.5 125.5L199.5 137.5L205.883 147.288C213.717 160.899 213.717 181.463 205.883 195.074" fill="#7C3AED"/>

  <circle cx="125.5" cy="171.5" r="9.5" fill="white"/>
  <circle cx="146.5" cy="171.5" r="9.5" fill="white"/>
  <circle cx="167.5" cy="171.5" r="9.5" fill="white"/>

  <path d="M282.266 171.181C282.266 192.38 270.598 209.619 253.266 216.712C235.934 223.805 215.598 223.805 198.266 216.712C180.934 209.619 169.266 192.38 169.266 171.181C169.266 162.24 170.934 154.212 174.883 147.288L181.266 137.5L170.266 125.5L186.266 129.5C192.384 123.633 200.398 119.344 209.266 116.712V101C209.266 87.193 220.459 76 234.266 76C248.073 76 259.266 87.193 259.266 101V116.712C268.134 119.344 276.148 123.633 282.266 129.5L298.266 125.5L287.266 137.5L293.649 147.288C301.483 160.899 301.483 181.463 293.649 195.074" fill="#22D3EE"/>
</svg>
